<?xml version="1.0" encoding="utf-8"?>
<!-- Generator: Adobe Illustrator 25.0.1, SVG Export Plug-In . SVG Version: 6.00 Build 0)  -->
<svg version="1.1" id="Layer_1" xmlns="http://www.w3.org/2000/svg" xmlns:xlink="http://www.w3.org/1999/xlink" x="0px" y="0px"
	 viewBox="0 0 512 512" style="enable-background:new 0 0 512 512;" xml:space="preserve">
<style type="text/css">
	.st0{opacity:0.4;fill:#FFFFFF;enable-background:new    ;}
	.st1{fill:#FFFFFF;}
</style>
<path class="st0" d="M76,160h40c6.6,0,12-5.4,12-12v-40c0-6.6-5.4-12-12-12H76c-6.6,0-12,5.4-12,12v40C64,154.6,69.4,160,76,160z
	 M0,224v208c0,26.5,21.5,48,48,48h416c26.5,0,48-21.5,48-48V224H0z"/>
<path class="st1" d="M464,32H48C21.5,32,0,53.5,0,80v144h512V80C512,53.5,490.5,32,464,32z M128,148c0,6.6-5.4,12-12,12H76
	c-6.6,0-12-5.4-12-12v-40c0-6.6,5.4-12,12-12h40c6.6,0,12,5.4,12,12V148z M448,148c0,6.6-5.4,12-12,12H188c-6.6,0-12-5.4-12-12v-40
	c0-6.6,5.4-12,12-12h248c6.6,0,12,5.4,12,12V148z"/>
</svg>
