<?xml version="1.0" encoding="utf-8"?>
<!-- Generator: Adobe Illustrator 25.0.1, SVG Export Plug-In . SVG Version: 6.00 Build 0)  -->
<svg version="1.1" id="Layer_1" xmlns="http://www.w3.org/2000/svg" xmlns:xlink="http://www.w3.org/1999/xlink" x="0px" y="0px"
	 viewBox="0 0 640 512" style="enable-background:new 0 0 640 512;" xml:space="preserve">
<style type="text/css">
	.st0{opacity:0.4;fill:#FFFFFF;enable-background:new    ;}
	.st1{fill:#FFFFFF;}
</style>
<path class="st0" d="M300.6,257.7c-34.1,80.8,3.1,173.9,83.4,209v21.5c-0.1,13.2-10.8,23.9-24,23.8H23.9C10.7,512,0,501.2,0,488
	c0,0,0,0,0,0V23.9C0,10.7,10.8,0,24,0c0,0,0,0,0,0h232v112c0,8.8,7.2,16,16,16h112v45.3C346.4,189.8,316.6,220,300.6,257.7z"/>
<path class="st1" d="M384,121.9c0-6.3-2.5-12.4-7-16.9L279.1,7c-4.5-4.5-10.6-7-17-7H256v112c0,8.8,7.2,16,16,16h112V121.9z
	 M635.3,462.1l-77.4-77.4c11.7-19.5,18-41.9,18.1-64.6c0-70.7-57.3-128-128-128s-128,57.3-128,128s57.3,128,128,128
	c23.7,0,45.6-6.9,64.7-18.1l77.4,77.4c6.2,6.2,16.4,6.3,22.6,0c0,0,0,0,0,0l22.6-22.6C641.6,478.4,641.6,468.3,635.3,462.1
	C635.3,462.1,635.3,462.1,635.3,462.1L635.3,462.1z M448,384c-35.3,0-64-28.7-64-64s28.7-64,64-64s64,28.7,64,64S483.3,384,448,384z
	"/>
</svg>
