<?xml version="1.0" encoding="utf-8"?>
<!-- Generator: Adobe Illustrator 25.0.1, SVG Export Plug-In . SVG Version: 6.00 Build 0)  -->
<svg version="1.1" id="Layer_1" xmlns="http://www.w3.org/2000/svg" xmlns:xlink="http://www.w3.org/1999/xlink" x="0px" y="0px"
	 viewBox="0 0 512 512" style="enable-background:new 0 0 512 512;" xml:space="preserve">
<style type="text/css">
	.st0{opacity:0.4;fill:#FFFFFF;enable-background:new    ;}
	.st1{fill:#FFFFFF;}
</style>
<path class="st0" d="M208,80c70.7,0,128,57.3,128,128s-57.3,128-128,128S80,278.7,80,208c0-33.9,13.5-66.5,37.5-90.5
	C141.4,93.4,174,79.9,208,80 M208,0C93.1,0,0,93.1,0,208s93.1,208,208,208s208-93.1,208-208S322.9,0,208,0z"/>
<path class="st1" d="M504.9,476.7L476.6,505c-9.3,9.4-24.4,9.4-33.8,0.1c0,0-0.1-0.1-0.1-0.1L343,405.3c-4.5-4.5-7-10.6-7-17V372
	l36-36h16.3c6.4,0,12.5,2.5,17,7l99.7,99.7C514.3,452.1,514.3,467.3,504.9,476.7z"/>
</svg>
