<svg xmlns="http://www.w3.org/2000/svg" viewBox="0 0 197.85 80.5"><defs><style>.cls-1{fill:#dbf1fe;}.cls-2{fill:#96d7ff;}.cls-3{fill:#efefef;}.cls-4{fill:#e2e2e2;}.cls-5,.cls-6{fill:#3d3d3d;}.cls-6{font-size:12.29px;font-family:Nunito-Bold, Nunito;font-weight:700;}.cls-7{letter-spacing:0em;}.cls-8{letter-spacing:0em;}.cls-9{fill:#fff;}</style></defs><g id="Layer_2" data-name="Layer 2"><g id="Layer_1-2" data-name="Layer 1"><rect class="cls-1" width="88.9" height="19.98" rx="9.99"/><path class="cls-2" d="M14.44,8.78v1.49a4.68,4.68,0,0,1-.77,2.53A2.42,2.42,0,0,1,11.49,14a2.62,2.62,0,0,1-1.38-.35A3.45,3.45,0,0,1,9,12.32a4.35,4.35,0,0,1-.51-2.05V8.78a4.75,4.75,0,0,1,.76-2.52,2.43,2.43,0,0,1,2.18-1.21,2.62,2.62,0,0,1,1.38.35,3.46,3.46,0,0,1,1.07,1.33A4.22,4.22,0,0,1,14.44,8.78Zm-1.36,0a3.13,3.13,0,0,0-.62-1.92,1.15,1.15,0,0,0-1-.46,1.2,1.2,0,0,0-1,.5,3,3,0,0,0-.59,1.88v1.49a3.08,3.08,0,0,0,.62,1.93,1.17,1.17,0,0,0,1,.45,1.22,1.22,0,0,0,1-.5,3,3,0,0,0,.59-1.88Z"/><path class="cls-2" d="M20.61,10.69l2.05,1.76a.9.9,0,0,1,.56.21.66.66,0,0,1,.18.47.64.64,0,0,1-.21.49,1.05,1.05,0,0,1-.69.19H21a1.07,1.07,0,0,1-.7-.19.68.68,0,0,1-.06-.92.82.82,0,0,1,.41-.25l-1-.87-1,.87a.84.84,0,0,1,.44.25.64.64,0,0,1,.14.42.67.67,0,0,1-.2.5,1.07,1.07,0,0,1-.7.19H16.73a1.07,1.07,0,0,1-.7-.19.64.64,0,0,1-.21-.49.63.63,0,0,1,.19-.47.87.87,0,0,1,.55-.21l2-1.77L16.79,9.17A.79.79,0,0,1,16.26,9a.68.68,0,0,1,0-.95A1.05,1.05,0,0,1,17,7.81h1.27A1.07,1.07,0,0,1,19,8a.63.63,0,0,1,.21.48.74.74,0,0,1-.37.63l.82.68.8-.69a.73.73,0,0,1-.36-.59A.65.65,0,0,1,20.26,8,1,1,0,0,1,21,7.81h1.26A1.05,1.05,0,0,1,22.9,8a.68.68,0,0,1,0,.95.79.79,0,0,1-.54.22Z"/><path class="cls-2" d="M26,5.25v3a4,4,0,0,1,1-.48,3.32,3.32,0,0,1,1-.17,3.24,3.24,0,0,1,2.38,1,3.13,3.13,0,0,1,1,2.34,2.89,2.89,0,0,1-.93,2.19A3.41,3.41,0,0,1,28,14,4,4,0,0,1,27,13.89a4.55,4.55,0,0,1-1-.41v.33H24.42a1.07,1.07,0,0,1-.7-.19.68.68,0,0,1,0-1,1.1,1.1,0,0,1,.7-.19h.23V6.6h-.23a1,1,0,0,1-.7-.19.68.68,0,0,1,0-1,1.07,1.07,0,0,1,.7-.18ZM30.05,11a1.93,1.93,0,0,0-.59-1.42,2.07,2.07,0,0,0-2.87,0A1.9,1.9,0,0,0,26,11a1.58,1.58,0,0,0,.53,1.22,2.14,2.14,0,0,0,1.49.48,2.18,2.18,0,0,0,1.5-.48A1.56,1.56,0,0,0,30.05,11Z"/><path class="cls-2" d="M37.93,8.06a.7.7,0,0,1,.5-.23.63.63,0,0,1,.48.2,1,1,0,0,1,.19.69V9.6a1,1,0,0,1-.19.69.65.65,0,0,1-.49.2.69.69,0,0,1-.47-.16.93.93,0,0,1-.22-.48.81.81,0,0,0-.38-.55A2.67,2.67,0,0,0,36,9a2.06,2.06,0,0,0-1.53.56A1.88,1.88,0,0,0,33.87,11a1.54,1.54,0,0,0,.56,1.25,2.85,2.85,0,0,0,1.84.46,4.8,4.8,0,0,0,1.38-.17,1.72,1.72,0,0,0,.6-.36.83.83,0,0,1,.51-.26.63.63,0,0,1,.48.21.62.62,0,0,1,.2.48c0,.3-.2.58-.61.85a4.89,4.89,0,0,1-2.67.6,4.06,4.06,0,0,1-2.45-.65A2.82,2.82,0,0,1,32.52,11a3.22,3.22,0,0,1,1-2.39,3.44,3.44,0,0,1,2.52-1,4.88,4.88,0,0,1,1,.11A3.62,3.62,0,0,1,37.93,8.06Z"/><path class="cls-2" d="M45.92,5.26v5.3a.88.88,0,0,1,.63.19.6.6,0,0,1,.21.48.64.64,0,0,1-.21.49.9.9,0,0,1-.63.19v.54a.88.88,0,0,1,.63.2.61.61,0,0,1,.21.48.64.64,0,0,1-.21.49,1.07,1.07,0,0,1-.7.19H44a1.07,1.07,0,0,1-.7-.19.68.68,0,0,1,0-1,1.07,1.07,0,0,1,.7-.19h.52v-.54H40.89V10.78l3.24-5.52Zm-1.36,5.3V7.23l-2,3.33Z"/><path class="cls-2" d="M50.91,6.62V8.23A4.55,4.55,0,0,1,52.28,8a2.75,2.75,0,0,1,2.07.85,3,3,0,0,1,.82,2.2,2.88,2.88,0,0,1-.83,2.18,3.65,3.65,0,0,1-2.56.78,4.39,4.39,0,0,1-2.4-.57.91.91,0,0,1-.52-.76.65.65,0,0,1,.2-.47.69.69,0,0,1,.48-.2.79.79,0,0,1,.5.22,1.6,1.6,0,0,0,.57.31,4,4,0,0,0,1.08.12,2.65,2.65,0,0,0,1.68-.39,1.51,1.51,0,0,0,.45-1.21,1.73,1.73,0,0,0-.43-1.25,1.48,1.48,0,0,0-1.11-.46,3.73,3.73,0,0,0-1.67.48.93.93,0,0,1-.37.11.64.64,0,0,1-.49-.21.77.77,0,0,1-.19-.55V5.26h4.13a1.07,1.07,0,0,1,.7.19.68.68,0,0,1,0,1,1,1,0,0,1-.7.19Z"/><path class="cls-2" d="M62.09,9.28a2.88,2.88,0,0,1,.9,1,2.44,2.44,0,0,1,.3,1.21,2.36,2.36,0,0,1-.4,1.33,2.45,2.45,0,0,1-1.14.92,5,5,0,0,1-2,.31,4.63,4.63,0,0,1-2.36-.48.8.8,0,0,1-.45-.66.7.7,0,0,1,.2-.5.65.65,0,0,1,.47-.2.75.75,0,0,1,.4.14,1.61,1.61,0,0,0,.55.26,5.09,5.09,0,0,0,1.09.09,3.47,3.47,0,0,0,1.7-.31.93.93,0,0,0,.53-.86,1.31,1.31,0,0,0-.3-.81,2.05,2.05,0,0,0-.83-.59,3.44,3.44,0,0,0-1-.17.73.73,0,0,1-.52-.21.63.63,0,0,1-.18-.46.68.68,0,0,1,.7-.69h.72a1.39,1.39,0,0,0,.53-.18,1.08,1.08,0,0,0,.42-.4.92.92,0,0,0,.17-.52.94.94,0,0,0-.38-.74,1.78,1.78,0,0,0-1.14-.32A1.9,1.9,0,0,0,58.63,7a1.18,1.18,0,0,1-.25.21.62.62,0,0,1-.31.08.65.65,0,0,1-.47-.2.64.64,0,0,1-.2-.49A1.15,1.15,0,0,1,58,5.67a3.75,3.75,0,0,1,2.21-.62,2.81,2.81,0,0,1,2,.71A2.27,2.27,0,0,1,63,7.48a2.16,2.16,0,0,1-.23,1A2.46,2.46,0,0,1,62.09,9.28Z"/><rect class="cls-3" x="67.5" y="6.69" width="122.87" height="73.42" rx="8.46"/><path class="cls-4" d="M181.91,7.08A8.07,8.07,0,0,1,190,15.15v56.5a8.08,8.08,0,0,1-8.08,8.08H76a8.07,8.07,0,0,1-8.07-8.08V15.15A8.07,8.07,0,0,1,76,7.08h106m0-.77H76a8.86,8.86,0,0,0-8.84,8.84v56.5A8.86,8.86,0,0,0,76,80.5h106a8.86,8.86,0,0,0,8.85-8.85V15.15a8.86,8.86,0,0,0-8.85-8.84Z"/><g id="Layer_2-2" data-name="Layer 2"><g id="Layer_1-2-2" data-name="Layer 1-2"><circle class="cls-5" cx="76.8" cy="18.5" r="1.36"/><circle class="cls-5" cx="81.1" cy="18.5" r="1.36"/><circle class="cls-5" cx="85.43" cy="18.5" r="1.36"/><circle class="cls-5" cx="82.92" cy="22.17" r="1.36"/><circle class="cls-5" cx="79.21" cy="22.17" r="1.36"/><circle class="cls-5" cx="81.1" cy="25.84" r="1.36"/></g></g><rect class="cls-4" x="74.52" y="41.31" width="108.26" height="6.82" rx="3.41"/><rect class="cls-4" x="74.52" y="60.88" width="85.29" height="6.96" rx="3.48"/><text class="cls-6" transform="translate(96.05 26.53)">Check cont<tspan class="cls-7" x="62.73" y="0">r</tspan><tspan x="67.41" y="0">a</tspan><tspan class="cls-8" x="74.05" y="0">c</tspan><tspan x="80.08" y="0">t</tspan></text><path class="cls-9" d="M192.84,37.53a.58.58,0,0,1-.26-.05.7.7,0,0,1-.4-.39l-2-4.66-2.38,2.2a.74.74,0,0,1-.5.2.79.79,0,0,1-.29-.06.75.75,0,0,1-.44-.67V21.62A.75.75,0,0,1,187,21a.79.79,0,0,1,.29-.06.72.72,0,0,1,.5.2l9.11,8.52a.74.74,0,0,1,.19.77.75.75,0,0,1-.63.49l-3.35.28,2.11,4.61a.72.72,0,0,1,0,.56.75.75,0,0,1-.39.41l-1.7.74A.8.8,0,0,1,192.84,37.53Z"/><path d="M187.28,21.62l9.11,8.52-4.38.37,2.54,5.55-1.7.74-2.43-5.6-3.14,2.9V21.62m0-1.46a1.51,1.51,0,0,0-.58.12,1.46,1.46,0,0,0-.87,1.34V34.1a1.44,1.44,0,0,0,.87,1.33,1.36,1.36,0,0,0,.58.13,1.47,1.47,0,0,0,1-.39l1.63-1.5,1.61,3.71a1.43,1.43,0,0,0,.8.78,1.4,1.4,0,0,0,.54.1,1.51,1.51,0,0,0,.58-.12l1.7-.74a1.48,1.48,0,0,0,.75-1.95l-1.68-3.66,2.31-.19a1.47,1.47,0,0,0,1.26-1,1.45,1.45,0,0,0-.38-1.54l-9.11-8.53a1.48,1.48,0,0,0-1-.39Z"/></g></g></svg>