<svg xmlns="http://www.w3.org/2000/svg" viewBox="0 0 252.46 119.03"><defs><style>.cls-1{fill:#dbf1fe;}.cls-2{fill:#96d7ff;}.cls-3{fill:#fff;}</style></defs><g id="Layer_2" data-name="Layer 2"><g id="Layer_1-2" data-name="Layer 1"><rect class="cls-1" width="243.57" height="54.73" rx="27.37"/><path class="cls-2" d="M39.55,24.06v4.07a12.75,12.75,0,0,1-2.09,6.93,6.65,6.65,0,0,1-6,3.31,6.88,6.88,0,0,1-3.79-1,9.19,9.19,0,0,1-2.93-3.63,11.9,11.9,0,0,1-1.39-5.62V24.06a12.87,12.87,0,0,1,2.08-6.91,6.64,6.64,0,0,1,6-3.32,6.93,6.93,0,0,1,3.77,1,9.38,9.38,0,0,1,2.95,3.63A11.92,11.92,0,0,1,39.55,24.06Zm-3.72,0a8.57,8.57,0,0,0-1.69-5.28,3.19,3.19,0,0,0-2.69-1.24,3.32,3.32,0,0,0-2.75,1.37,8.18,8.18,0,0,0-1.61,5.15v4.07a8.49,8.49,0,0,0,1.7,5.28,3.17,3.17,0,0,0,2.7,1.25,3.34,3.34,0,0,0,2.73-1.37,8.21,8.21,0,0,0,1.61-5.16Z"/><path class="cls-2" d="M56.46,29.29l5.63,4.83a2.27,2.27,0,0,1,1.52.57,1.78,1.78,0,0,1,.5,1.29,1.7,1.7,0,0,1-.57,1.33,2.77,2.77,0,0,1-1.9.52H57.42a2.8,2.8,0,0,1-1.91-.52,1.87,1.87,0,0,1-.16-2.51,2,2,0,0,1,1.11-.68L53.7,31.73l-2.83,2.39a2.19,2.19,0,0,1,1.22.67,1.93,1.93,0,0,1-.19,2.52,2.72,2.72,0,0,1-1.89.52H45.83a2.8,2.8,0,0,1-1.91-.52,1.86,1.86,0,0,1-.06-2.62,2.23,2.23,0,0,1,1.52-.57l5.49-4.85L46,25.11a2.2,2.2,0,0,1-1.46-.58,1.78,1.78,0,0,1-.49-1.28,1.71,1.71,0,0,1,.57-1.33,2.81,2.81,0,0,1,1.9-.51H50a2.82,2.82,0,0,1,1.9.51,1.68,1.68,0,0,1,.57,1.31,2,2,0,0,1-1,1.74l2.24,1.86,2.21-1.9a2,2,0,0,1-1-1.63,1.77,1.77,0,0,1,.56-1.38,2.86,2.86,0,0,1,1.91-.51h3.44a2.86,2.86,0,0,1,1.91.51,1.72,1.72,0,0,1,.57,1.35,1.78,1.78,0,0,1-.5,1.26,2.21,2.21,0,0,1-1.47.58Z"/><path class="cls-2" d="M71.24,14.37v8.32A11.28,11.28,0,0,1,74,21.36a9.14,9.14,0,0,1,2.83-.44,8.89,8.89,0,0,1,6.53,2.66A8.72,8.72,0,0,1,86,30a7.93,7.93,0,0,1-2.55,6,9.38,9.38,0,0,1-6.73,2.41A10.37,10.37,0,0,1,73.9,38a10.83,10.83,0,0,1-2.66-1.12v.91H66.9A2.8,2.8,0,0,1,65,37.31,1.72,1.72,0,0,1,64.42,36,1.67,1.67,0,0,1,65,34.64a2.79,2.79,0,0,1,1.9-.52h.63v-16H66.9A2.8,2.8,0,0,1,65,17.56a1.72,1.72,0,0,1-.57-1.35A1.69,1.69,0,0,1,65,14.89a2.8,2.8,0,0,1,1.91-.52ZM82.33,30.1a5.25,5.25,0,0,0-1.61-3.88,5.64,5.64,0,0,0-7.87,0,5.21,5.21,0,0,0-1.61,3.83,4.33,4.33,0,0,0,1.45,3.36,5.87,5.87,0,0,0,4.08,1.31,5.94,5.94,0,0,0,4.1-1.31A4.28,4.28,0,0,0,82.33,30.1Z"/><path class="cls-2" d="M103.92,22.07a2,2,0,0,1,1.38-.63,1.7,1.7,0,0,1,1.31.57,2.81,2.81,0,0,1,.51,1.89v2.39a2.82,2.82,0,0,1-.51,1.9,1.78,1.78,0,0,1-1.35.56,2,2,0,0,1-1.29-.44,2.42,2.42,0,0,1-.59-1.33,2.24,2.24,0,0,0-1-1.49,7.26,7.26,0,0,0-3.74-.87,5.8,5.8,0,0,0-4.21,1.54,5.18,5.18,0,0,0-1.58,3.89,4.2,4.2,0,0,0,1.52,3.43c1,.84,2.69,1.25,5,1.25a12.37,12.37,0,0,0,3.78-.47,4.72,4.72,0,0,0,1.65-1,2.22,2.22,0,0,1,1.41-.7,1.79,1.79,0,0,1,1.31.56,1.83,1.83,0,0,1,.55,1.32q0,1.23-1.68,2.34-2.49,1.64-7.31,1.64a11,11,0,0,1-6.72-1.79,7.72,7.72,0,0,1-3.26-6.58,8.82,8.82,0,0,1,2.64-6.56,9.41,9.41,0,0,1,6.89-2.59,12.89,12.89,0,0,1,2.86.29A10.07,10.07,0,0,1,103.92,22.07Z"/><path class="cls-2" d="M125.8,14.42V28.93a2.51,2.51,0,0,1,1.74.51,1.75,1.75,0,0,1,.56,1.33,1.73,1.73,0,0,1-.57,1.34,2.47,2.47,0,0,1-1.73.53v1.48a2.46,2.46,0,0,1,1.74.52A1.77,1.77,0,0,1,128.1,36a1.7,1.7,0,0,1-.57,1.33,2.78,2.78,0,0,1-1.91.52h-5a2.8,2.8,0,0,1-1.91-.52,1.72,1.72,0,0,1-.57-1.35,1.69,1.69,0,0,1,.57-1.32,2.8,2.8,0,0,1,1.91-.52h1.45V32.64H112v-3.1l8.88-15.12Zm-3.7,14.51V19.81l-5.37,9.12Z"/><path class="cls-2" d="M139.48,18.13v4.41a12.63,12.63,0,0,1,3.74-.65,7.57,7.57,0,0,1,5.68,2.34,8.27,8.27,0,0,1,2.26,6,7.79,7.79,0,0,1-2.29,6c-1.52,1.44-3.86,2.16-7,2.16a12,12,0,0,1-6.59-1.57,2.55,2.55,0,0,1-1.41-2.08,1.77,1.77,0,0,1,.55-1.3,1.83,1.83,0,0,1,1.31-.55,2.23,2.23,0,0,1,1.38.61,4.45,4.45,0,0,0,1.55.84,10.68,10.68,0,0,0,3,.34c2.24,0,3.77-.36,4.59-1.07a4.16,4.16,0,0,0,1.23-3.3,4.79,4.79,0,0,0-1.18-3.44,4,4,0,0,0-3.05-1.25,10.41,10.41,0,0,0-4.57,1.3,2.21,2.21,0,0,1-1,.31,1.73,1.73,0,0,1-1.33-.58,2.13,2.13,0,0,1-.53-1.5V14.42h11.34a2.85,2.85,0,0,1,1.91.52,1.86,1.86,0,0,1,0,2.68,2.86,2.86,0,0,1-1.91.51Z"/><path class="cls-2" d="M170.12,25.44A7.82,7.82,0,0,1,172.58,28a6.78,6.78,0,0,1,.81,3.3A6.6,6.6,0,0,1,172.31,35a6.69,6.69,0,0,1-3.12,2.53,14,14,0,0,1-5.35.86A12.58,12.58,0,0,1,157.36,37a2.16,2.16,0,0,1-1.21-1.81,1.82,1.82,0,0,1,.54-1.34,1.71,1.71,0,0,1,1.29-.56,1.92,1.92,0,0,1,1.08.37,4.9,4.9,0,0,0,1.51.72,13.63,13.63,0,0,0,3,.25,9.74,9.74,0,0,0,4.68-.84,2.61,2.61,0,0,0,1.45-2.38,3.46,3.46,0,0,0-.84-2.19,5.44,5.44,0,0,0-2.25-1.64,9.66,9.66,0,0,0-2.75-.45,2.08,2.08,0,0,1-1.42-.57,1.79,1.79,0,0,1-.5-1.28,1.84,1.84,0,0,1,.54-1.34,1.88,1.88,0,0,1,1.38-.54c1.23,0,1.89,0,2,0a3.74,3.74,0,0,0,1.45-.47,3.11,3.11,0,0,0,1.16-1.09,2.62,2.62,0,0,0,.45-1.44,2.57,2.57,0,0,0-1-2,4.8,4.8,0,0,0-3.12-.86,5.26,5.26,0,0,0-4.09,1.55,2.69,2.69,0,0,1-.67.58,1.84,1.84,0,0,1-.85.2,1.77,1.77,0,0,1-1.3-.54,1.82,1.82,0,0,1-.54-1.34,3.16,3.16,0,0,1,1.66-2.42A10.18,10.18,0,0,1,165,13.83a7.76,7.76,0,0,1,5.52,1.95,6.24,6.24,0,0,1,2.08,4.7,5.89,5.89,0,0,1-.62,2.67A7.38,7.38,0,0,1,170.12,25.44Z"/><path class="cls-3" d="M223.73,114.84a4.24,4.24,0,0,1-1.53-.29,4.18,4.18,0,0,1-2.31-2.23l-11.6-26.76L194.65,98.19a4.2,4.2,0,0,1-2.85,1.12,4.28,4.28,0,0,1-1.67-.35,4.19,4.19,0,0,1-2.51-3.84V23.48a4.18,4.18,0,0,1,2.52-3.84,4.18,4.18,0,0,1,4.53.78l52.27,48.94a4.18,4.18,0,0,1-2.51,7.22l-19.21,1.63,12.11,26.43a4.19,4.19,0,0,1-2.13,5.58l-9.79,4.27A4.25,4.25,0,0,1,223.73,114.84Z"/><path d="M191.81,23.48l52.27,48.93-25.14,2.12,14.58,31.85-9.79,4.27L209.78,78.48l-18,16.64V23.48m0-8.37a8.37,8.37,0,0,0-8.37,8.37V95.12a8.37,8.37,0,0,0,14.06,6.14l9.31-8.61L216.05,114a8.38,8.38,0,0,0,7.68,5,8.25,8.25,0,0,0,3.35-.7l9.79-4.27a8.38,8.38,0,0,0,4.26-11.16l-9.62-21,13.28-1.12a8.38,8.38,0,0,0,5-14.46L197.53,17.37a8.33,8.33,0,0,0-5.73-2.26Z"/></g></g></svg>