<?xml version="1.0" encoding="utf-8"?>
<!-- Generator: Adobe Illustrator 25.0.1, SVG Export Plug-In . SVG Version: 6.00 Build 0)  -->
<svg version="1.1" id="Layer_1" xmlns="http://www.w3.org/2000/svg" xmlns:xlink="http://www.w3.org/1999/xlink" x="0px" y="0px"
	 viewBox="0 0 29.6 32" style="enable-background:new 0 0 29.6 32;" xml:space="preserve">
<style type="text/css">
	.st0{fill:#FFFFFF;}
	.st1{fill-rule:evenodd;clip-rule:evenodd;fill:#FFFFFF;}
</style>
<g id="uni2" transform="translate(0 -0.5)">
	<path id="Path_10" class="st0" d="M9.2,2.8C8.8,2.8,8.8,2.8,9,2.7c0.6,0,1.3,0,1.9,0.2c1.6,0.5,3.1,1.4,4.1,2.7L15.3,6L15.9,6
		c2.2-0.4,4.4-0.1,6.4,0.8c0.5,0.2,1,0.5,1.4,0.8c0.1,0.2,0.1,0.4,0.1,0.6c0.2,0.7,0.1,1.5-0.2,2.2c-0.1,0.2-0.2,0.4-0.1,0.6
		c0.1,0.2,0.3,0.3,0.5,0.3c0.5,0,1-0.8,1.2-1.8l0.1-0.4l0.2,0.2c1,1.1,1.6,2.4,1.9,3.8l0,0.3l-0.2-0.3c-0.2-0.4-0.6-0.7-1-1
		c-0.7-0.4-1.4-0.6-3.3-0.7c-1.2,0-2.5-0.2-3.6-0.5C17.8,10.3,17,9.6,15,7.1c-0.6-0.8-1.2-1.6-1.9-2.3C12.1,3.7,10.7,3.1,9.2,2.8z"
		/>
	<path id="Path_11" class="st0" d="M24.1,5.3c0-0.6,0.1-1.2,0.4-1.7c0-0.1,0.1-0.2,0.2-0.3c0,0.1,0,0.2-0.1,0.3
		c-0.2,0.6-0.2,1.2-0.1,1.7c0.1,0.9,0.2,1,1.2,2c0.4,0.5,1,1,1.1,1.3l0.3,0.4l-0.3-0.3c-0.5-0.5-1-0.9-1.6-1.3
		c-0.1-0.1-0.2-0.1-0.3,0c-0.1,0.1-0.1,0.2-0.1,0.8c0,0.7-0.1,1.4-0.4,2c-0.2,0.3-0.2,0.2,0-0.1c0.1-0.4,0.2-0.8,0.1-1.2
		c0-1.7-0.2-2.1-1.4-2.8c-0.3-0.2-0.8-0.4-1.1-0.6c-0.2-0.1-0.4-0.2-0.5-0.3c0.6,0.1,1.1,0.3,1.7,0.5C23.7,6,23.9,6.1,23.9,6
		C24,6,24,5.8,24.1,5.3z"/>
	<path id="Path_12" class="st0" d="M10,8.3C9.1,7,8.7,5.5,8.8,4l0-0.4l0.2,0c0.4,0.1,0.9,0.3,1.3,0.5c0.8,0.5,1.1,1.1,1.5,2.8
		c0.1,0.5,0.2,1,0.3,1.2c0.2,0.5,0.5,1,0.8,1.4c0.2,0.3,0.1,0.5-0.4,0.4C11.5,9.7,10.6,9.1,10,8.3z"/>
	<path id="Path_13" class="st0" d="M23,16.9c-4-1.6-5.4-3-5.4-5.3c0-0.2,0-0.4,0-0.6c0.1,0.1,0.2,0.2,0.3,0.2
		c0.8,0.6,1.7,0.9,4.2,1.3c1,0.1,2.1,0.3,3,0.6c2.2,0.6,3.9,2.4,4.3,4.6c0.1,0.8,0.1,1.7-0.1,2.5c-0.1,0.5-0.4,1-0.6,1.4
		c0,0-0.1-0.1-0.1-0.3c-0.1-0.9-0.5-1.7-1.2-2.2C26.2,18.2,24.6,17.4,23,16.9z"/>
	<path id="Path_14" class="st0" d="M20.3,17.6c0-0.3-0.1-0.6-0.2-0.8L20,16.4l0.2,0.2c0.3,0.3,0.5,0.7,0.6,1.2
		c0.1,0.4,0.2,0.7,0.1,1.1c0,0.4,0,0.7-0.1,1.1c-0.2,0.5-0.5,1-0.8,1.3c-0.8,0.8-1.9,1.2-3,1.3c-0.2,0-0.9,0.1-1.5,0.1
		c-1.1,0-2.3,0.2-3.4,0.5c-0.1,0-0.2,0.1-0.3,0.1c0.3-0.3,0.7-0.5,1.1-0.6c0.9-0.4,2-0.7,3-0.8c0.8-0.1,1.6-0.3,1.8-0.3
		C19.5,21.1,20.6,19.4,20.3,17.6z"/>
	<path id="Path_15" class="st0" d="M22.1,20.8c-0.5-1-0.6-2.1-0.4-3.2c0-0.1,0.1-0.2,0.1-0.2c0.1,0,0.2,0.1,0.3,0.1
		c0.2,0.2,0.7,0.4,2,1.1c1.2,0.6,2.3,1.4,3.2,2.3c0.6,0.7,0.9,1.5,1.1,2.4c0.1,0.8,0,1.6-0.1,2.4c-0.4,1.6-1.4,3-2.9,3.8
		c-0.1,0.1-0.3,0.1-0.4,0.2c0-0.2,0.1-0.3,0.2-0.4c0.5-1,0.5-2.1,0.2-3.1c-0.4-1-0.9-2-1.6-2.9C23.1,22.5,22.5,21.7,22.1,20.8z"/>
	<path id="Path_16" class="st0" d="M7.2,26.8c1.4-1.2,3.1-2,5-2.4c0.9-0.1,1.7-0.1,2.6,0.1c1,0.2,1.9,0.8,2.5,1.6
		c0.5,0.8,0.8,1.7,0.9,2.7c0.1,0.5,0.2,1.1,0.2,1.2c0.1,0.6,0.4,1.2,0.9,1.6c0.9,0.5,1.9,0.5,2.7,0.1c0.1-0.1,0.2-0.1,0.3-0.1
		c-0.3,0.2-0.5,0.4-0.9,0.6c-0.4,0.2-0.9,0.4-1.4,0.3c-1,0-1.9-0.6-2.4-1.5c-0.2-0.4-0.5-0.9-0.7-1.3c-0.7-1.6-1.1-2.1-1.9-2.6
		c-0.7-0.5-1.6-0.5-2.3-0.2c-0.7,0.3-1.1,1.2-0.7,2c0.1,0.1,0.1,0.2,0.2,0.4c0.3,0.3,0.7,0.5,1.1,0.6c0.7,0.1,1.3-0.4,1.4-1
		c0-0.1,0-0.1,0-0.2c0-0.4-0.2-0.8-0.7-1c-0.6-0.3-1.3,0-1.3,0.6c0,0.2,0.1,0.5,0.4,0.5c0.2,0.1,0.2,0.1,0,0.1
		c-0.4-0.1-0.6-0.5-0.5-0.9c0-0.2,0.1-0.3,0.3-0.4c0.6-0.5,1.5-0.4,2,0.3C15,27.9,15,28,15,28c0.2,0.4,0.2,0.9,0,1.3
		c-0.4,0.9-1.3,1.3-2.3,1.1c-0.7-0.2-1.3-0.6-1.7-1.2c-1-1.2-2.4-1.9-3.9-2l-0.4-0.1L7.2,26.8z"/>
	<path id="Path_17" class="st1" d="M0.7,1.4c2.5,3,5.3,5.8,8.2,8.4c0.3,0.4,0.2,0.8-0.3,1.1c-0.4,0.2-0.7,0.3-1.1,0.3
		c-0.2,0-0.3,0-0.4-0.1c-0.2-0.2-0.3-0.1-1.3-1.9C4.4,7.1,3.2,5.3,3.2,5.3C3.1,5.3,3.1,5.3,5.6,9.6c0.2,0.4,0.3,0.9,0.1,1.4
		c0,0.3-0.1,0.4-0.4,0.8c-0.6,0.8-0.9,1.7-1,2.7C4.1,15.9,3.6,17,2,18.9c-0.5,0.5-0.9,1.1-1.3,1.8c-0.3,0.5-0.4,1-0.4,1.6
		c0,0.7,0,1.3,0.3,2c0.2,0.7,0.5,1.3,1,1.9c0.3,0.4,0.6,0.9,0.7,1.5c0,0.2,0,0.2,0.8,0c1.5-0.3,2.8-0.9,3.9-1.9
		c0.4-0.4,0.7-0.9,0.6-1.5c0-0.3,0-0.6-0.1-0.8c-0.3-0.6-0.8-1-1.4-1.4c-0.8-0.4-1.5-1.2-1.7-2.1C4.3,19,4.5,18.2,5,17.5
		c0.5-1,0.8-2,0.9-3.1c0.1-0.8,0.2-1.2,0.4-1.4c0.3-0.3,0.7-0.5,1.1-0.5c0.8-0.1,1.6-0.4,2.2-0.9c0.4-0.4,0.7-0.9,0.7-1.4l0-0.5
		L10,9.4C9.1,8.3,0.1,0.5,0,0.5C0,0.5,0.3,0.9,0.7,1.4z M2.8,23.1c0.2-0.4,0.1-0.8-0.3-1.1c-0.3-0.2-0.9-0.1-0.9,0.2
		c0,0.1,0,0.2,0.2,0.2c0.2,0.1,0.2,0.2,0.1,0.4s-0.1,0.4,0,0.5c0.3,0.2,0.6,0.1,0.8-0.2C2.8,23.2,2.8,23.2,2.8,23.1z"/>
	<path id="Path_18" class="st1" d="M10.9,12.7c-0.5,0.2-0.9,0.6-1.1,1.2c-0.1,0.4-0.1,0.7,0.1,1.1c0.2,0.3,0.4,0.4,1,0.4
		c1.1,0,2-0.5,2.1-1.1c0-0.6-0.3-1.2-0.9-1.4C11.8,12.7,11.3,12.6,10.9,12.7z M12.2,13.7c0.1-0.2,0.1-0.5-0.1-0.6c0,0-0.1,0-0.1-0.1
		c-0.5-0.3-1.4-0.1-1.4,0.5c0,0.3,0.4,0.5,0.8,0.5C11.7,14,12,13.9,12.2,13.7L12.2,13.7z"/>
</g>
</svg>
